<svg width="73" height="73" viewBox="0 0 73 73" fill="none" xmlns="http://www.w3.org/2000/svg">
<rect x="1.48482" y="1.78871" width="70.2017" height="70.2017" rx="18.7749" stroke="#262626" stroke-width="1.6326"/>
<rect x="9.64778" y="18.1146" width="53.8757" height="37.5497" rx="5.71409" fill="white"/>
<rect x="9.64778" y="18.1146" width="53.8757" height="37.5497" rx="5.71409" stroke="#F9F7F6" stroke-width="1.6326"/>
<path d="M40.2714 36.4092C40.2714 42.4555 35.4262 47.357 29.4492 47.357C23.4723 47.357 18.6271 42.4555 18.6271 36.4092C18.6271 30.3629 23.4723 25.4614 29.4492 25.4614C35.4262 25.4614 40.2714 30.3629 40.2714 36.4092Z" fill="#ED0006"/>
<path d="M54.311 36.4092C54.311 42.4555 49.4657 47.357 43.4888 47.357C37.5119 47.357 32.6666 42.4555 32.6666 36.4092C32.6666 30.3629 37.5119 25.4614 43.4888 25.4614C49.4657 25.4614 54.311 30.3629 54.311 36.4092Z" fill="#0099DF"/>
<path fill-rule="evenodd" clip-rule="evenodd" d="M36.4691 44.7416C38.7959 42.7336 40.2714 39.7456 40.2714 36.4091C40.2714 33.0726 38.7959 30.0847 36.4691 28.0767C34.1422 30.0847 32.6667 33.0726 32.6667 36.4091C32.6667 39.7456 34.1422 42.7336 36.4691 44.7416Z" fill="#6C6BBD"/>
</svg>
