<svg width="73" height="73" viewBox="0 0 73 73" fill="none" xmlns="http://www.w3.org/2000/svg">
<rect x="1.485" y="1.12025" width="70.2017" height="70.2017" rx="18.7749" stroke="#262626" stroke-width="1.6326"/>
<rect x="9.64796" y="17.4462" width="53.8757" height="37.5497" rx="5.71409" fill="white"/>
<rect x="9.64796" y="17.4462" width="53.8757" height="37.5497" rx="5.71409" stroke="#F9F7F6" stroke-width="1.6326"/>
<path fill-rule="evenodd" clip-rule="evenodd" d="M36.878 44.1055C34.945 45.735 32.4374 46.7186 29.6974 46.7186C23.5835 46.7186 18.6273 41.8213 18.6273 35.7802C18.6273 29.7391 23.5835 24.8418 29.6974 24.8418C32.4375 24.8418 34.9451 25.8255 36.8781 27.4549C38.8112 25.8255 41.3188 24.8419 44.0588 24.8419C50.1727 24.8419 55.1289 29.7392 55.1289 35.7803C55.1289 41.8214 50.1727 46.7187 44.0588 46.7187C41.3187 46.7187 38.8111 45.735 36.878 44.1055Z" fill="#ED0006"/>
<path fill-rule="evenodd" clip-rule="evenodd" d="M36.8781 44.1056C39.2583 42.0993 40.7676 39.1139 40.7676 35.7802C40.7676 32.4465 39.2583 29.4611 36.8781 27.4548C38.8111 25.8254 41.3186 24.8418 44.0586 24.8418C50.1725 24.8418 55.1288 29.7391 55.1288 35.7802C55.1288 41.8213 50.1725 46.7186 44.0586 46.7186C41.3186 46.7186 38.8111 45.735 36.8781 44.1056Z" fill="#F9A000"/>
<path fill-rule="evenodd" clip-rule="evenodd" d="M36.8781 44.1057C39.2583 42.0994 40.7676 39.1141 40.7676 35.7804C40.7676 32.4467 39.2583 29.4614 36.8781 27.4551C34.4979 29.4614 32.9886 32.4467 32.9886 35.7804C32.9886 39.1141 34.4979 42.0994 36.8781 44.1057Z" fill="#FF5E00"/>
</svg>
