<svg width="72" height="73" viewBox="0 0 72 73" fill="none" xmlns="http://www.w3.org/2000/svg">
<rect x="0.910231" y="1.12025" width="70.2017" height="70.2017" rx="18.7749" stroke="#262626" stroke-width="1.6326"/>
<rect x="9.0732" y="17.4462" width="53.8757" height="37.5497" rx="5.71409" fill="white"/>
<rect x="9.0732" y="17.4462" width="53.8757" height="37.5497" rx="5.71409" stroke="#F9F7F6" stroke-width="1.6326"/>
<path fill-rule="evenodd" clip-rule="evenodd" d="M32.1161 46.7486L32.4764 44.3828L31.6737 44.3634H27.8405L30.5044 26.905C30.5127 26.8522 30.5395 26.8031 30.5787 26.7682C30.6181 26.7333 30.6683 26.7141 30.7208 26.7141H37.1842C39.3301 26.7141 40.8109 27.1755 41.5839 28.0864C41.9464 28.5138 42.1772 28.9604 42.289 29.4518C42.4062 29.9675 42.4081 30.5835 42.2938 31.335L42.2855 31.3897V31.8712L42.648 32.0835C42.9532 32.2509 43.1958 32.4424 43.3818 32.6616C43.6918 33.0271 43.8924 33.4915 43.9771 34.0419C44.0647 34.6081 44.0358 35.282 43.8924 36.0449C43.7269 36.9223 43.4596 37.6865 43.0985 38.3117C42.7665 38.8879 42.3434 39.3659 41.841 39.7361C41.3614 40.088 40.7916 40.3552 40.1473 40.5261C39.5229 40.6941 38.8111 40.7789 38.0304 40.7789H37.5274C37.1678 40.7789 36.8184 40.9127 36.5442 41.1527C36.2691 41.3977 36.0873 41.7325 36.0315 42.0985L35.9935 42.3116L35.3568 46.4816L35.328 46.6346C35.3203 46.6831 35.3072 46.7073 35.2878 46.7236C35.2707 46.7386 35.246 46.7486 35.2218 46.7486H32.1161Z" fill="#28356A"/>
<path fill-rule="evenodd" clip-rule="evenodd" d="M42.9916 31.4453C42.9725 31.5728 42.9503 31.7031 42.9256 31.8369C42.0732 36.3603 39.157 37.9229 35.4326 37.9229H33.5363C33.0807 37.9229 32.6968 38.2646 32.626 38.7291L31.3801 46.8974C31.334 47.2024 31.5613 47.4771 31.859 47.4771H35.2224C35.6206 47.4771 35.959 47.1781 36.0217 46.7721L36.0547 46.5955L36.688 42.4419L36.7287 42.214C36.7906 41.8067 37.1298 41.5074 37.528 41.5074H38.0309C41.2896 41.5074 43.8406 40.1401 44.5862 36.1829C44.8976 34.5299 44.7364 33.1496 43.9122 32.1789C43.6629 31.8862 43.3535 31.6432 42.9916 31.4453Z" fill="#298FC2"/>
<path fill-rule="evenodd" clip-rule="evenodd" d="M42.0995 31.0779C41.9692 31.0386 41.8349 31.0031 41.6971 30.971C41.5585 30.9397 41.4166 30.9119 41.2705 30.8876C40.7592 30.8022 40.1989 30.7617 39.5988 30.7617H34.5328C34.408 30.7617 34.2895 30.7908 34.1835 30.8435C33.9497 30.9596 33.7762 31.1882 33.7342 31.4681L32.6564 38.5235L32.6255 38.7291C32.6963 38.2647 33.0802 37.923 33.5357 37.923H35.4321C39.1565 37.923 42.0727 36.3595 42.925 31.837C42.9505 31.7031 42.9719 31.5729 42.991 31.4454C42.7754 31.3271 42.5419 31.2259 42.2904 31.1398C42.2283 31.1184 42.1642 31.0979 42.0995 31.0779Z" fill="#22284F"/>
<path fill-rule="evenodd" clip-rule="evenodd" d="M33.7344 31.4679C33.7765 31.188 33.95 30.9594 34.1837 30.8441C34.2905 30.7912 34.4082 30.7621 34.5331 30.7621H39.5991C40.1992 30.7621 40.7595 30.8028 41.2708 30.8882C41.4169 30.9123 41.5587 30.9403 41.6973 30.9716C41.8351 31.0035 41.9695 31.0392 42.0998 31.0783C42.1644 31.0983 42.2285 31.119 42.2912 31.1396C42.5427 31.2257 42.7765 31.3277 42.9921 31.4452C43.2457 29.7736 42.9899 28.6355 42.1156 27.6049C41.1515 26.4702 39.4117 25.9846 37.1853 25.9846H30.7217C30.2669 25.9846 29.879 26.3264 29.8087 26.7916L27.1166 44.4295C27.0635 44.7784 27.3239 45.0932 27.6643 45.0932H31.6547L33.7344 31.4679Z" fill="#28356A"/>
</svg>
