<svg width="73" height="73" viewBox="0 0 73 73" fill="none" xmlns="http://www.w3.org/2000/svg">
<rect x="1.0594" y="1.12025" width="70.2017" height="70.2017" rx="18.7749" stroke="#262626" stroke-width="1.6326"/>
<rect x="9.22237" y="17.4462" width="53.8757" height="37.5497" rx="5.71409" fill="white"/>
<rect x="9.22237" y="17.4462" width="53.8757" height="37.5497" rx="5.71409" stroke="#F9F7F6" stroke-width="1.6326"/>
<path fill-rule="evenodd" clip-rule="evenodd" d="M25.957 42.5199H22.5942L20.0726 32.6168C19.9529 32.1613 19.6988 31.7586 19.325 31.5687C18.3921 31.0917 17.3641 30.7121 16.2426 30.5207V30.1394H21.6597C22.4073 30.1394 22.9681 30.7121 23.0615 31.3773L24.3699 38.5207L27.731 30.1394H31.0002L25.957 42.5199ZM32.8694 42.5199H29.6936L32.3087 30.1394H35.4845L32.8694 42.5199ZM39.5931 33.5693C39.6865 32.9025 40.2472 32.5212 40.9014 32.5212C41.9294 32.4255 43.0492 32.617 43.9838 33.0923L44.5445 30.4267C43.61 30.0455 42.582 29.854 41.6491 29.854C38.5667 29.854 36.3238 31.5689 36.3238 33.9489C36.3238 35.7596 37.9125 36.7103 39.034 37.283C40.2472 37.8541 40.7145 38.2353 40.6211 38.8064C40.6211 39.663 39.6865 40.0443 38.7536 40.0443C37.6322 40.0443 36.5107 39.7588 35.4843 39.2818L34.9236 41.949C36.0451 42.4244 37.2583 42.6158 38.3798 42.6158C41.836 42.7099 43.9838 40.9967 43.9838 38.4252C43.9838 35.1868 39.5931 34.997 39.5931 33.5693ZM55.0983 42.5199L52.5767 30.1394H49.8682C49.3074 30.1394 48.7467 30.5207 48.5598 31.0917L43.8903 42.5199H47.1596L47.8122 40.711H51.8291L52.2029 42.5199H55.0983ZM50.3356 33.4735L51.2685 38.1396H48.6534L50.3356 33.4735Z" fill="#172B85"/>
</svg>
