<?xml version="1.0" encoding="iso-8859-1"?>
<!-- Uploaded to: SVG Repo, www.svgrepo.com, Generator: SVG Repo Mixer Tools -->
<svg fill="#000000" height="800px" width="800px" version="1.1" id="Layer_1" xmlns="http://www.w3.org/2000/svg" xmlns:xlink="http://www.w3.org/1999/xlink" 
	 viewBox="0 0 508 508" xml:space="preserve">
<g>
	<g>
		<path d="M380.5,78.2H226.2c-7.8,0-14.1,6.3-14.1,14.1s6.3,14.1,14.1,14.1h154.3c7.8,0,14.1-6.3,14.1-14.1S388.3,78.2,380.5,78.2z"
			/>
	</g>
</g>
<g>
	<g>
		<path d="M380.5,160.1H127.3c-7.8,0-14.1,6.3-14.1,14.1s6.3,14.1,14.1,14.1h253.3c7.8,0,14.1-6.3,14.1-14.1
			S388.3,160.1,380.5,160.1z"/>
	</g>
</g>
<g>
	<g>
		<path d="M380.5,242H127.3c-7.8,0-14.1,6.3-14.1,14.1s6.3,14.1,14.1,14.1h253.3c7.8,0,14.1-6.3,14.1-14.1
			C394.6,248.3,388.3,242,380.5,242z"/>
	</g>
</g>
<g>
	<g>
		<path d="M380.5,323.9H127.3c-7.8,0-14.1,6.3-14.1,14.1c0,7.8,6.3,14.1,14.1,14.1h253.3c7.8,0,14.1-6.3,14.1-14.1
			C394.6,330.2,388.3,323.9,380.5,323.9z"/>
	</g>
</g>
<g>
	<g>
		<path d="M407.2,0H175.7c-10.9,0-21.1,4.2-28.8,11.9L71.8,87c-7.7,7.7-11.9,17.9-11.9,28.8v351.4c0,22.5,18.3,40.8,40.8,40.8h306.6
			c22.5,0,40.8-18.3,40.8-40.8V40.8C448,18.3,429.7,0,407.2,0z M150.5,48.2v42.5H108L150.5,48.2z M419.7,467.2
			c0,6.9-5.6,12.5-12.5,12.5H100.6c-6.9,0-12.5-5.6-12.5-12.5V118.9h76.6c7.8,0,14.1-6.3,14.1-14.1V28.2h228.4
			c6.9,0,12.5,5.6,12.5,12.5V467.2z"/>
	</g>
</g>
<g>
	<g>
		<path d="M281.9,422.1c2.5,0,4.5-1.9,4.5-4.2s-2-4.2-4.5-4.2h-10.8v-9.5h10.8v0.2c2.5,0,4.5-1.9,4.5-4.2c0-2.3-2-4.2-4.5-4.2h-15.3
			c-2.5,0-4.5,1.9-4.5,4.2v35.6c0,2.3,2,4.2,4.5,4.2h15.3c2.5,0,4.5-1.9,4.5-4.2s-2-4.2-4.5-4.2h-10.8v-9.5H281.9z"/>
	</g>
</g>
<g>
	<g>
		<path d="M251.7,413.9h-16.8c-2.5,0-4.5,1.9-4.5,4.2s2,4.2,4.5,4.2h11.7c-1.6,5.5-6.2,9.5-11.7,9.5c-6.8,0-12.3-6.1-12.3-13.7
			c0-7.5,5.5-13.7,12.3-13.7c3.4,0,6.6,1.5,8.9,4.3c1.5,1.8,4.4,2.1,6.4,0.7c2-1.4,2.3-4,0.8-5.8c-4-4.8-9.9-7.5-16.1-7.5
			c-11.8,0-21.3,9.9-21.3,22c0,12.1,9.6,22,21.3,22c11.8,0,21.3-9.9,21.3-22C256.3,415.8,254.2,413.9,251.7,413.9z"/>
	</g>
</g>
<g>
	<g>
		<path d="M325.3,396.1c-2.5,0-4.5,1.9-4.5,4.2v20.6l-14.9-22.8c-1-1.6-3.1-2.4-5.1-1.9s-3.3,2.1-3.3,4v35.6c0,2.3,2,4.2,4.5,4.2
			s4.5-1.9,4.5-4.2v-20.6l14.9,22.8c0.8,1.3,2.3,2,3.9,2c0.4,0,0.8,0,1.2-0.2c2-0.5,3.3-2.1,3.3-4v-35.6
			C329.8,398,327.8,396.1,325.3,396.1z"/>
	</g>
</g>
<g>
	<g>
		<path d="M364.6,396.1h-23.1c-2.5,0-4.5,1.9-4.5,4.2s2,4.2,4.5,4.2h7V436c0,2.3,2,4.2,4.5,4.2s4.5-1.9,4.5-4.2v-31.5h7
			c2.5,0,4.5-1.9,4.5-4.2C369.1,398,367.1,396.1,364.6,396.1z"/>
	</g>
</g>
<g>
	<g>
		<path d="M209.9,433.5l-7.6-12.8c4.8-2.1,8.1-6.5,8.1-11.5c0-7.2-6.7-13.1-15-13.1h-10.2c-2.5,0-4.5,1.9-4.5,4.2v35.6
			c0,2.3,2,4.2,4.5,4.2s4.5-1.9,4.5-4.2v-13.7h3.1l9.1,15.2c0.8,1.4,2.4,2.2,4,2.2c0.7,0,1.5-0.2,2.2-0.5
			C210.3,438,211.1,435.5,209.9,433.5z M195.4,413.9h-5.7v-9.5h5.7c3.3,0,5.9,2.1,5.9,4.8C201.3,411.8,198.7,413.9,195.4,413.9z"/>
	</g>
</g>
<g>
	<g>
		<path d="M169.1,396.1c-2.5,0-4.5,1.9-4.5,4.2v24.6c0,3.8-3.8,6.9-8.4,6.9c-4.6,0-8.4-3.1-8.4-6.9v-24.6c0-2.3-2-4.2-4.5-4.2
			s-4.5,1.9-4.5,4.2v24.6c0,8.4,7.8,15.2,17.5,15.2c9.6,0,17.5-6.8,17.5-15.2v-24.6C173.6,398,171.6,396.1,169.1,396.1z"/>
	</g>
</g>
</svg>